<svg width="159" height="32" viewBox="0 0 159 32" fill="none" xmlns="http://www.w3.org/2000/svg">
<path fill-rule="evenodd" clip-rule="evenodd" d="M53.8019 6.50537C54.6568 6.8856 55.396 7.48642 55.9439 8.24657V0H60.8689V25.6383H57.0388V25.5944L56.569 23.0905H56.5332C55.9839 23.9979 55.1995 24.7391 54.2637 25.235C53.1863 25.7903 51.9869 26.065 50.7759 26.0336C48.0805 26.0336 45.9384 25.0952 44.4056 23.2382C42.8726 21.3813 42.0963 18.9532 42.0963 16.0499C42.0963 13.1466 42.9165 10.6826 44.509 8.75373C45.28 7.81452 46.2547 7.06435 47.3587 6.56052C48.4627 6.05669 49.667 5.8125 50.8794 5.84651C51.8903 5.84586 52.8885 6.07085 53.8019 6.50537ZM56.115 16.0499C56.1662 14.5996 55.7161 13.1761 54.841 12.0205C54.4383 11.5037 53.9199 11.0894 53.3278 10.8111C52.7356 10.5329 52.0864 10.3986 51.4328 10.4191C50.7879 10.4036 50.15 10.555 49.5803 10.8585C49.0106 11.1622 48.5283 11.6076 48.18 12.1522C47.3911 13.2971 46.974 14.6583 46.9856 16.0499C46.9364 17.4344 47.3421 18.7969 48.1402 19.9276C48.5214 20.4343 49.0203 20.8401 49.5935 21.1094C50.1666 21.3788 50.7967 21.5036 51.4289 21.4731C52.0725 21.4937 52.7124 21.368 53.3005 21.1051C53.8888 20.8423 54.41 20.4492 54.8251 19.9555C55.714 18.8542 56.1726 17.4657 56.115 16.0499Z" fill="#E2401B"/>
<path fill-rule="evenodd" clip-rule="evenodd" d="M27.5922 6.55537C28.7185 6.06152 29.9384 5.81969 31.1673 5.84662C32.3997 5.82119 33.6232 6.06077 34.7557 6.54915C35.8881 7.03753 36.9032 7.76345 37.7327 8.67798C39.4726 10.5509 40.3565 13.011 40.3565 15.9942L40.3207 17.4198H27.3171C27.3118 17.963 27.4208 18.5013 27.6369 18.9995C27.8531 19.4977 28.1714 19.9447 28.5713 20.311C29.3972 21.0876 30.4933 21.509 31.6251 21.4852C32.7219 21.4801 33.7952 21.1659 34.7227 20.5786C35.5946 20.0768 36.3301 19.3679 36.8648 18.5139V18.49H37.1832V18.5139L39.3929 22.6712L39.3731 22.6952C38.8674 23.4579 37.9119 24.2167 36.5263 24.9515C35.0035 25.7179 33.3165 26.0978 31.6132 26.0578C28.8221 26.0578 26.5089 25.1233 24.7331 23.3422C22.9574 21.5611 22.0576 19.2089 22.0576 16.1539C22.0576 13.0988 22.9296 10.5989 24.6456 8.70598C25.4604 7.78297 26.466 7.04912 27.5922 6.55537ZM27.3848 13.8655H35.2284C35.0861 12.9905 34.6723 12.1828 34.0458 11.5573C33.6962 11.182 33.2705 10.8862 32.7972 10.6899C32.3241 10.4935 31.8143 10.4013 31.3026 10.4192C30.8044 10.396 30.3072 10.4824 29.8458 10.6721C29.3843 10.8618 28.9698 11.1503 28.6311 11.5174C28.0194 12.1783 27.5898 12.9876 27.3848 13.8655Z" fill="#E2401B"/>
<path fill-rule="evenodd" clip-rule="evenodd" d="M73.8367 5.84661C72.5608 5.80584 71.2969 6.10485 70.1737 6.71318C69.2837 7.19867 68.5461 7.9233 68.0436 8.80575H68.0117L67.7052 6.25785H63.6998V32H68.601V23.4978H68.6607C69.2045 24.2785 69.9394 24.9057 70.7948 25.3189C71.7243 25.7992 72.7552 26.0484 73.8009 26.0457C74.9458 26.0874 76.0844 25.8557 77.1227 25.3697C78.1611 24.8837 79.0694 24.1573 79.773 23.2502C81.2383 21.3933 81.9788 18.9732 81.9788 16.0619C81.9788 13.1507 81.2223 10.6947 79.7213 8.76981C79.0437 7.84745 78.1561 7.10082 77.1324 6.59237C76.1088 6.08382 74.9788 5.82815 73.8367 5.84661ZM77.0776 16.0499C77.1276 17.4457 76.7068 18.8175 75.8831 19.9436C75.5281 20.4273 75.0627 20.8187 74.5258 21.0848C73.9889 21.3509 73.3963 21.4841 72.7975 21.4731C72.1915 21.4938 71.589 21.3742 71.0365 21.1234C70.4842 20.8727 69.9968 20.4977 69.6123 20.0275C68.816 19.0651 68.4178 17.7272 68.4178 16.0339C68.4178 14.3407 68.816 12.923 69.6123 11.9167C69.9848 11.4282 70.4681 11.0361 71.0221 10.7729C71.5761 10.5096 72.1847 10.3828 72.7975 10.4031C73.4124 10.3893 74.0207 10.5318 74.5658 10.8174C75.1109 11.103 75.5751 11.5224 75.915 12.0364C76.7154 13.2176 77.1224 14.6226 77.0776 16.0499Z" fill="#E2401B"/>
<path fill-rule="evenodd" clip-rule="evenodd" d="M91.7056 5.84652C94.0069 5.84652 95.918 6.50549 97.3833 7.80337C98.8325 9.10522 99.577 10.9622 99.5572 13.3304V25.6462H95.6155L95.1217 23.0984H95.0859C93.9831 25.0632 92.0879 26.0576 89.4481 26.0576C87.4653 26.0576 85.9523 25.5744 84.9331 24.6159C83.9138 23.6575 83.4002 22.3237 83.4002 20.6425C83.3509 19.2113 83.8544 17.8165 84.8057 16.7487C85.7374 15.7184 87.2941 14.9757 89.4362 14.5204C90.883 14.2522 92.3062 13.869 93.6924 13.3743C94.3175 13.0947 94.62 12.7113 94.62 12.2002C94.6228 11.9222 94.5557 11.6481 94.4249 11.4031C94.294 11.1581 94.1038 10.9502 93.8716 10.7985C93.1958 10.3959 92.4143 10.208 91.63 10.2593C90.5647 10.266 89.5281 10.6051 88.6637 11.2298C87.7076 11.9103 86.9335 12.817 86.4102 13.8695V13.8974H86.0998V13.8735L83.7109 9.87995V9.85195C84.5828 8.59473 85.7544 7.57613 87.119 6.88883C88.5443 6.18298 90.1161 5.82581 91.7056 5.84652ZM90.3241 21.6448C91.4209 21.672 92.4982 21.3505 93.4018 20.7263C94.2458 20.1233 94.6718 19.3964 94.6838 18.5977V16.601C94.3733 17.1521 93.1549 17.6593 90.9571 18.1544C90.2174 18.2771 89.5135 18.5606 88.8947 18.9852C88.7185 19.1307 88.5767 19.3136 88.4796 19.5208C88.3826 19.728 88.3325 19.9542 88.3333 20.1832C88.3333 21.1656 88.9783 21.6448 90.3241 21.6448Z" fill="#E2401B"/>
<path d="M112.286 5.84651C111.145 5.83493 110.02 6.10218 109.005 6.62522C108.03 7.12648 107.206 7.87911 106.617 8.80566H106.585L106.275 6.25786H102.285V25.6343H107.19V15.8422C107.131 14.449 107.531 13.0749 108.328 11.9326C108.698 11.4407 109.181 11.0461 109.736 10.7824C110.29 10.5188 110.901 10.3941 111.513 10.4191C113.644 10.4191 114.723 11.677 114.723 14.157V25.6343H119.625V12.6076C119.652 11.7118 119.499 10.8197 119.172 9.98552C118.846 9.15135 118.353 8.3926 117.724 7.75541C116.495 6.4895 114.643 5.84651 112.286 5.84651Z" fill="#E2401B"/>
<path fill-rule="evenodd" clip-rule="evenodd" d="M133.161 6.50537C134.016 6.8856 134.754 7.48642 135.303 8.24657V0H140.228V25.6383H136.398V25.5944L135.924 23.0905H135.892C135.341 23.9971 134.558 24.7379 133.623 25.235C132.545 25.7903 131.346 26.065 130.135 26.0336C127.44 26.0336 125.278 25.0952 123.765 23.2382C122.252 21.3813 121.455 18.9532 121.455 16.0499C121.455 13.1466 122.276 10.6826 123.868 8.75373C124.638 7.81291 125.612 7.06167 126.716 6.55762C127.82 6.05358 129.025 5.81035 130.239 5.84651C131.249 5.84618 132.247 6.07128 133.161 6.50537ZM135.474 16.0499C135.526 14.5988 135.074 13.1748 134.197 12.0205C133.794 11.5032 133.275 11.0886 132.683 10.8102C132.09 10.5319 131.441 10.3979 130.788 10.4191C130.143 10.4033 129.505 10.5545 128.935 10.858C128.365 11.1616 127.883 11.6073 127.535 12.1522C126.746 13.2972 126.329 14.6583 126.341 16.0499C126.293 17.4349 126.699 18.7973 127.5 19.9276C127.88 20.4343 128.379 20.8401 128.952 21.1094C129.525 21.3788 130.156 21.5036 130.788 21.4731C131.431 21.4937 132.07 21.3678 132.658 21.1051C133.245 20.8422 133.765 20.4491 134.18 19.9555C135.072 18.8554 135.532 17.4665 135.474 16.0499Z" fill="#E2401B"/>
<path fill-rule="evenodd" clip-rule="evenodd" d="M156.309 7.80346C154.84 6.50548 152.933 5.84661 150.631 5.84661C149.048 5.82795 147.481 6.18511 146.061 6.88893C144.695 7.57429 143.523 8.59333 142.652 9.85205L142.633 9.88005L145.021 13.8736V13.8975H145.328V13.8695C145.85 12.8174 146.623 11.9106 147.578 11.2299C148.444 10.6051 149.481 10.266 150.547 10.2594C151.332 10.2086 152.114 10.3965 152.79 10.7986C153.021 10.951 153.21 11.1592 153.34 11.4041C153.47 11.649 153.537 11.9227 153.534 12.2003C153.534 12.7114 153.232 13.0948 152.611 13.3744C151.224 13.8691 149.801 14.2523 148.355 14.5205C146.212 14.9758 144.651 15.7185 143.72 16.7488C142.771 17.8185 142.268 19.2121 142.314 20.6426C142.314 22.3238 142.831 23.6576 143.847 24.616C144.862 25.5746 146.384 26.0577 148.362 26.0577C151.006 26.0577 152.901 25.0633 154.003 23.0985H154.04L154.533 25.6463H158.475V13.3305C158.519 10.9623 157.774 9.10531 156.309 7.80346ZM152.327 20.7264C151.424 21.35 150.347 21.6715 149.25 21.6449C147.904 21.6449 147.259 21.1657 147.259 20.1833C147.257 19.9542 147.306 19.7275 147.404 19.5202C147.502 19.3128 147.643 19.13 147.82 18.9853C148.438 18.5593 149.143 18.2757 149.883 18.1545C152.076 17.6594 153.299 17.1522 153.61 16.6011V18.5978C153.614 19.3965 153.184 20.1234 152.327 20.7264Z" fill="#E2401B"/>
<path fill-rule="evenodd" clip-rule="evenodd" d="M15.6832 15.9103C15.9801 16.6227 16.3151 17.3185 16.6865 17.9949L11.3395 21.3733C10.7303 20.0316 9.68312 17.5117 9.2133 16.3655L7.94718 16.3975H5.87285V25.5825H0.418213V0.0241013H11.6261C13.9245 -0.0286743 16.163 0.762338 17.9208 2.24848C19.6674 3.7314 20.5406 5.81068 20.5406 8.48637C20.5406 10.7946 19.8957 12.581 18.6056 13.8456C17.781 14.7252 16.7867 15.4277 15.6832 15.9103ZM10.8935 5.12381H5.87285V11.4735H10.4555C13.2692 11.4761 14.6759 10.3806 14.6759 8.18681C14.6759 6.14478 13.4151 5.12381 10.8935 5.12381Z" fill="#E2401B"/>
<path d="M22.3243 23.7455L20.895 22.7312L14.9825 26.5729L17.0528 27.3796L20.66 27.3717L23.2758 25.5027L22.3243 23.7455Z" fill="#E2401B"/>
<path d="M12.1118 22.9387L17.5943 19.4763L19.4856 21.6728L13.6527 25.3588L12.1118 22.9387Z" fill="#E2401B"/>
</svg>
